# xmcd
#
# Track frame offsets: 
#        150
#        12215
#        24560
#        36005
#        48472
#        60207
#        72002
#        84482
#        96152
#        109580
#        123730
#        138230
#        150547
#        164145
#        176132
#        188625
#        201390
#
# Disc length: 2833 seconds
#
# Revision: 1
# Processed by: cddbd v1.5.2PL0 Copyright (c) Steve Scherf et al.
# Submitted via: ExactAudioCopy v0.99pb4
#
DISCID=e20b0f11
DTITLE=Various Artist - Jackson,Mississippi Blues
DYEAR=1900
DGENRE=Blues
TTITLE0=Delta Blues - Big Joe Williams&His 9 string guitar
TTITLE1=Mama Don't Allow Me - Big Joe Williams&His 9 string guitar
TTITLE2=She Left Me A Mule - Big Joe Williams&His 9 string guitar
TTITLE3=Bad Heart Blues/ Big Joe Williams&His 9 string guitar
TTITLE4=Juanita/ Big Joe Williams&His 9 string guitar
TTITLE5=Friends and Pal/ Big Joe Williams&His 9 string guitar
TTITLE6=OverHauling Blues/ Big Joe Williams&His 9 string guitar
TTITLE7=Whistling Pines/ Big Joe Williams&His 9 string guitar
TTITLE8=Gotta Find My Baby /Aythur ''Big Boy''Crudup with Sonny Boy Wi
TTITLE8=lliamson
TTITLE9=Make A Little Love With Me /Aythur ''Big Boy''Crudup with Sonn
TTITLE9=y Boy Williamson
TTITLE10=Gotta Find My Baby(alternate take) /Aythur ''Big Boy''Crudup 
TTITLE10=with Sonny Boy Williamson
TTITLE11=Gotta Find My Baby(alternate take) /Aythur ''Big Boy''Crudup 
TTITLE11=with Sonny Boy Williamson
TTITLE12=Catfish Blues /Bobo Thomas
TTITLE13=1951 Blues /Luther Huff
TTITLE14=Dirty Disposition /Luther Huff
TTITLE15=Bull Dog Blues /Luther Huff
TTITLE16=Rosalee /Luther Huff
EXTD=
EXTT0=
EXTT1=
EXTT2=
EXTT3=
EXTT4=
EXTT5=
EXTT6=
EXTT7=
EXTT8=
EXTT9=
EXTT10=
EXTT11=
EXTT12=
EXTT13=
EXTT14=
EXTT15=
EXTT16=
PLAYORDER=
